<?xml version="1.0" encoding="UTF-8"?>
<svg width="800" height="600" xmlns="http://www.w3.org/2000/svg">
    <style>
        .participant { fill: #f8f9fa; stroke: #6c757d; stroke-width: 2; }
        .arrow { stroke: #212529; stroke-width: 2; marker-end: url(#arrowhead); }
        .text { font-family: Arial, sans-serif; font-size: 14px; fill: #212529; }
        .note { fill: #e9ecef; stroke: #6c757d; stroke-width: 1; }
        .note-text { font-family: Arial, sans-serif; font-size: 12px; fill: #212529; }
    </style>
    <defs>
        <marker id="arrowhead" markerWidth="10" markerHeight="7" refX="9" refY="3.5" orient="auto">
            <polygon points="0 0, 10 3.5, 0 7" fill="#212529"/>
        </marker>
    </defs>
    
    <!-- Participants -->
    <rect class="participant" x="50" y="20" width="120" height="40" rx="5"/>
    <text class="text" x="110" y="45" text-anchor="middle">User</text>
    
    <rect class="participant" x="200" y="20" width="120" height="40" rx="5"/>
    <text class="text" x="260" y="45" text-anchor="middle">Editor</text>
    
    <rect class="participant" x="350" y="20" width="120" height="40" rx="5"/>
    <text class="text" x="410" y="45" text-anchor="middle">API</text>
    
    <rect class="participant" x="500" y="20" width="120" height="40" rx="5"/>
    <text class="text" x="560" y="45" text-anchor="middle">Database</text>
    
    <rect class="participant" x="650" y="20" width="120" height="40" rx="5"/>
    <text class="text" x="710" y="45" text-anchor="middle">COS</text>
    
    <!-- Lifelines -->
    <line x1="110" y1="60" x2="110" y2="580" stroke="#6c757d" stroke-width="1" stroke-dasharray="4"/>
    <line x1="260" y1="60" x2="260" y2="580" stroke="#6c757d" stroke-width="1" stroke-dasharray="4"/>
    <line x1="410" y1="60" x2="410" y2="580" stroke="#6c757d" stroke-width="1" stroke-dasharray="4"/>
    <line x1="560" y1="60" x2="560" y2="580" stroke="#6c757d" stroke-width="1" stroke-dasharray="4"/>
    <line x1="710" y1="60" x2="710" y2="580" stroke="#6c757d" stroke-width="1" stroke-dasharray="4"/>
    
    <!-- Scene Creation Flow -->
    <rect class="note" x="50" y="80" width="700" height="120"/>
    <text class="note-text" x="60" y="100">Scene Creation Flow</text>
    
    <line class="arrow" x1="110" y1="120" x2="260" y2="120"/>
    <text class="text" x="185" y="115">Create New Activity</text>
    
    <line class="arrow" x1="260" y1="160" x2="410" y2="160"/>
    <text class="text" x="335" y="155">POST /api/activities</text>
    
    <line class="arrow" x1="410" y1="200" x2="560" y2="200"/>
    <text class="text" x="485" y="195">Create Activity Record</text>
    
    <line class="arrow" x1="560" y1="240" x2="410" y2="240"/>
    <text class="text" x="485" y="235">Return Activity Data</text>
    
    <line class="arrow" x1="410" y1="280" x2="260" y2="280"/>
    <text class="text" x="335" y="275">Return Activity</text>
    
    <!-- Object Addition Flow -->
    <rect class="note" x="50" y="320" width="700" height="200"/>
    <text class="note-text" x="60" y="340">Object Addition Flow</text>
    
    <line class="arrow" x1="110" y1="360" x2="260" y2="360"/>
    <text class="text" x="185" y="355">Add 3D Object</text>
    
    <line class="arrow" x1="260" y1="400" x2="710" y2="400"/>
    <text class="text" x="485" y="395">Upload 3D Model</text>
    
    <line class="arrow" x1="710" y1="440" x2="260" y2="440"/>
    <text class="text" x="485" y="435">Return Model URL</text>
    
    <line class="arrow" x1="260" y1="480" x2="410" y2="480"/>
    <text class="text" x="335" y="475">Update Scene Configuration</text>
    
    <line class="arrow" x1="410" y1="520" x2="560" y2="520"/>
    <text class="text" x="485" y="515">Store Object Data</text>
    
    <line class="arrow" x1="560" y1="560" x2="260" y2="560"/>
    <text class="text" x="485" y="555">Return Updated Scene</text>
</svg> 